<?xml version="1.0" encoding="UTF-8"?>
<svg version="1.1" xmlns="http://www.w3.org/2000/svg" width="204" height="204">
<path d="M0 0 C67.32 0 134.64 0 204 0 C204 67.32 204 134.64 204 204 C136.68 204 69.36 204 0 204 C0 136.68 0 69.36 0 0 Z " fill="#32B145" transform="translate(0,0)"/>
<path d="M0 0 C0.17683407 4.24945882 0.28169487 8.49795193 0.375 12.75 C0.42527344 13.93722656 0.47554688 15.12445313 0.52734375 16.34765625 C0.65722205 24.27023268 -0.63184883 29.60575418 -4.60302734 36.48535156 C-5.85779732 38.74402523 -6.62958178 40.45920538 -7 43 C-6.28800486 45.36016119 -6.28800486 45.36016119 -5.125 47.75 C-3.17887815 52.27305561 -2.36264984 56.10422715 -2 61 C3.01541738 56.88372817 3.96383393 53.46313518 5 47.1875 C6.27270686 40.584343 7.59881083 35.25839752 12 30 C12.58265625 29.19304688 13.1653125 28.38609375 13.765625 27.5546875 C16.33474418 24.61726802 18.90233743 22.9326117 22.25 20.9375 C22.82484131 20.59388428 23.39968262 20.25026855 23.99194336 19.89624023 C35.07680196 13.33498774 35.07680196 13.33498774 41 12 C41.84327631 24.3680525 39.80746872 38.92919594 32 49 C24.73108298 57.11376922 16.98234459 59.15490246 6.3828125 59.7890625 C3.85323589 59.92039844 3.85323589 59.92039844 1 61 C1 61.66 1 62.32 1 63 C0.01 63.495 0.01 63.495 -1 64 C-1.84677312 66.31499197 -1.84677312 66.31499197 -2.5078125 69.12890625 C-2.77207031 70.16337891 -3.03632812 71.19785156 -3.30859375 72.26367188 C-3.57800781 73.35228516 -3.84742187 74.44089844 -4.125 75.5625 C-4.54072266 77.2012207 -4.54072266 77.2012207 -4.96484375 78.87304688 C-5.65051917 81.58028259 -6.32854015 84.28920983 -7 87 C-2.545 86.505 -2.545 86.505 2 86 C2.495 84.02 2.495 84.02 3 82 C9.36181289 72.31121863 17.87839788 64.61688733 29 61 C32.50190805 60.49360242 35.90505671 60.48239339 39.4375 60.5625 C40.31470703 60.55541016 41.19191406 60.54832031 42.09570312 60.54101562 C51.37583007 60.62991883 59.4445971 63.67289887 68 67 C68 67.66 68 68.32 68 69 C67.34773437 69.23074219 66.69546875 69.46148437 66.0234375 69.69921875 C60.39703636 71.79874602 56.4474948 73.99725468 52 78 C51.34 78 50.68 78 50 78 C50 78.66 50 79.32 50 80 C44.52380952 85 44.52380952 85 42 85 C42 85.66 42 86.32 42 87 C32.56869175 92.77427035 24.00990744 93.80243698 13 93 C10.64464827 92.40845684 8.51944953 91.64654847 6.2734375 90.734375 C1.67115225 89.24772615 -3.20217741 89.27573693 -8 89 C-8 92.63 -8 96.26 -8 100 C-6.515 99.979375 -5.03 99.95875 -3.5 99.9375 C0.33890073 99.88418193 3.99286569 100.25221999 7.79589844 100.76147461 C10.96430966 101.10435651 14.12518939 101.15829538 17.30932617 101.24023438 C35.75991995 101.75991995 35.75991995 101.75991995 41 107 C41.01665074 108.56423432 40.96308892 110.12935006 40.87890625 111.69140625 C40.83056641 112.63564453 40.78222656 113.57988281 40.73242188 114.55273438 C40.67634766 115.54595703 40.62027344 116.53917969 40.5625 117.5625 C40.51029297 118.55958984 40.45808594 119.55667969 40.40429688 120.58398438 C40.2741763 123.05627522 40.13919819 125.5282063 40 128 C39.34 128 38.68 128 38 128 C38.165 129.216875 38.33 130.43375 38.5 131.6875 C38.5234375 133.89453125 38.5234375 133.89453125 38 136 C36.10638907 137.74229499 34.23073467 138.82080625 31.9453125 139.9921875 C29.83962912 140.95865146 29.83962912 140.95865146 28 143 C27.66792225 145.22709858 27.66792225 145.22709858 27.6484375 147.796875 C27.57689453 149.23546875 27.57689453 149.23546875 27.50390625 150.703125 C27.41866508 152.71791639 27.35578534 154.73379077 27.31640625 156.75 C26.89935322 164.00478287 26.89935322 164.00478287 24.21118164 166.97949219 C22.20111072 168.4868744 20.18585397 169.76628685 18 171 C17.236875 171.5775 16.47375 172.155 15.6875 172.75 C7.89082682 176.37635962 -1.18100453 176.31773258 -9.625 176.25 C-10.59695312 176.25773438 -11.56890625 176.26546875 -12.5703125 176.2734375 C-21.01851331 176.25072728 -28.41073432 175.30066167 -35.875 171.125 C-36.77992187 170.63257813 -37.68484375 170.14015625 -38.6171875 169.6328125 C-41.79565359 167.45478164 -43.67932735 165.61755231 -44.44140625 161.7734375 C-44.48136719 160.98195312 -44.52132812 160.19046875 -44.5625 159.375 C-44.88190458 154.87671883 -45.61630554 150.62473282 -46.59765625 146.2265625 C-47 144 -47 144 -47 140 C-47.99 139.67 -48.98 139.34 -50 139 C-50 138.34 -50 137.68 -50 137 C-51.65 136.67 -53.3 136.34 -55 136 C-55.89288071 129.86412375 -56.18292652 123.88456877 -56.1875 117.6875 C-56.19974609 116.79482422 -56.21199219 115.90214844 -56.22460938 114.98242188 C-56.22750977 113.69754883 -56.22750977 113.69754883 -56.23046875 112.38671875 C-56.23457764 111.61545654 -56.23868652 110.84419434 -56.24291992 110.04956055 C-56 108 -56 108 -54 105 C-53.01 105 -52.02 105 -51 105 C-50.505 103.515 -50.505 103.515 -50 102 C-24.98776758 99.70030581 -24.98776758 99.70030581 -13 100 C-13 96.37 -13 92.74 -13 89 C-18.15184641 86.81049264 -18.15184641 86.81049264 -23 88 C-25.53673288 89.3553326 -25.53673288 89.3553326 -28 91 C-35.93797577 96.15968425 -45.7746427 96.06454925 -55 95 C-58.76055244 93.83790098 -61.78249569 92.24642655 -65 90 C-65.928125 89.360625 -66.85625 88.72125 -67.8125 88.0625 C-70.50399816 85.52480173 -72.75750776 82.94727551 -75 80 C-75 79.34 -75 78.68 -75 78 C-75.66 78 -76.32 78 -77 78 C-77.99 75.03 -77.99 75.03 -79 72 C-79.66 72 -80.32 72 -81 72 C-82.32 69.03 -83.64 66.06 -85 63 C-49.24075128 62.43735448 -49.24075128 62.43735448 -34 70 C-34 70.66 -34 71.32 -34 72 C-33.443125 72.061875 -32.88625 72.12375 -32.3125 72.1875 C-29.01958329 73.34447074 -27.35780446 75.4653602 -25 78 C-24.236875 78.721875 -23.47375 79.44375 -22.6875 80.1875 C-21 82 -21 82 -21 84 C-19.88625 84.185625 -19.88625 84.185625 -18.75 84.375 C-16.19858515 84.95486701 -14.2732427 85.73708739 -12 87 C-11.88785156 85.99582031 -11.77570313 84.99164063 -11.66015625 83.95703125 C-11.09379323 79.99049238 -9.85200063 76.43935211 -8.4375 72.6875 C-6.66986118 68.45064875 -6.66986118 68.45064875 -6 64 C-11.26437831 60.75646369 -15.28932323 60.66682325 -21.25 60.875 C-22.95308841 60.89863602 -24.6562177 60.91949968 -26.359375 60.9375 C-27.16697266 60.94910156 -27.97457031 60.96070313 -28.80664062 60.97265625 C-38.16621606 61.0893384 -44.00009542 58.97332471 -52 54 C-52 53.34 -52 52.68 -52 52 C-52.556875 51.773125 -53.11375 51.54625 -53.6875 51.3125 C-57.68438886 49.04399551 -60.53966649 46.38100054 -62 42 C-62.66 42 -63.32 42 -64 42 C-68 36.58823529 -68 36.58823529 -68 34 C-61.06206362 31.38073413 -54.47113908 30.69875306 -47.125 30.6875 C-46.30475342 30.68234375 -45.48450684 30.6771875 -44.6394043 30.671875 C-37.93047203 30.74890221 -33.69236307 32.19311418 -28.3125 36.3125 C-27.54550781 36.88613281 -26.77851562 37.45976563 -25.98828125 38.05078125 C-23.7651926 40.23019429 -22.94575128 42.06159628 -22 45 C-21.34 45 -20.68 45 -20 45 C-19.505 47.475 -19.505 47.475 -19 50 C-18.34 50 -17.68 50 -17 50 C-16.525625 51.051875 -16.05125 52.10375 -15.5625 53.1875 C-12.91456708 57.92489271 -8.7854022 59.78112761 -4 62 C-6.74955308 49.16809898 -6.74955308 49.16809898 -14.5 39.1875 C-15.325 38.795625 -16.15 38.40375 -17 38 C-21.74347824 33.9341615 -24.4765379 29.9068147 -25.3203125 23.609375 C-25.60943277 17.32582777 -24.18846703 13.38053812 -21 8 C-20.34 8 -19.68 8 -19 8 C-18.67 7.01 -18.34 6.02 -18 5 C-15.48828125 3.61328125 -15.48828125 3.61328125 -12.3125 2.3125 C-11.27738281 1.87550781 -10.24226563 1.43851563 -9.17578125 0.98828125 C-5.91049047 -0.02785475 -3.391683 -0.07477959 0 0 Z " fill="#165507" transform="translate(110,16)"/>
<path d="M0 0 C0 0.66 0 1.32 0 2 C-1.29292969 2.09796875 -2.58585937 2.1959375 -3.91796875 2.296875 C-13.23877888 3.0740579 -21.80419065 4.07499774 -30.6640625 7.1953125 C-33 8 -33 8 -35 8 C-34.67 8.99 -34.34 9.98 -34 11 C-31.52252007 11.91785159 -29.25334324 12.58213299 -26.69140625 13.16015625 C-25.93469131 13.33305679 -25.17797638 13.50595734 -24.39833069 13.68409729 C-16.11851955 15.4133745 -7.93696272 15.57019496 0.4934082 15.46655273 C3.06462018 15.43747602 5.63376969 15.44602883 8.20507812 15.45898438 C20.21108017 15.44248059 31.35366208 14.01214084 43 11 C43 10.34 43 9.68 43 9 C34.07139453 4.82065276 25.20628505 3.66374373 15.4375 2.875 C14.42880859 2.78863281 13.42011719 2.70226562 12.38085938 2.61328125 C9.92097635 2.40343341 7.46077098 2.19911533 5 2 C5 1.34 5 0.68 5 0 C6.49988961 -0.0276619 7.99993869 -0.0466861 9.5 -0.0625 C10.3353125 -0.07410156 11.170625 -0.08570312 12.03125 -0.09765625 C14.99215997 -0.0002579 17.86212891 0.36862086 20.79589844 0.76147461 C23.96430966 1.10435651 27.12518939 1.15829538 30.30932617 1.24023438 C48.75991995 1.75991995 48.75991995 1.75991995 54 7 C54.01665074 8.56423432 53.96308892 10.12935006 53.87890625 11.69140625 C53.83056641 12.63564453 53.78222656 13.57988281 53.73242188 14.55273438 C53.67634766 15.54595703 53.62027344 16.53917969 53.5625 17.5625 C53.51029297 18.55958984 53.45808594 19.55667969 53.40429688 20.58398438 C53.2741763 23.05627522 53.13919819 25.5282063 53 28 C52.34 28 51.68 28 51 28 C51.165 29.216875 51.33 30.43375 51.5 31.6875 C51.5234375 33.89453125 51.5234375 33.89453125 51 36 C49.10638907 37.74229499 47.23073467 38.82080625 44.9453125 39.9921875 C42.83962912 40.95865146 42.83962912 40.95865146 41 43 C40.66792225 45.22709858 40.66792225 45.22709858 40.6484375 47.796875 C40.60074219 48.7559375 40.55304688 49.715 40.50390625 50.703125 C40.41866508 52.71791639 40.35578534 54.73379077 40.31640625 56.75 C39.89935322 64.00478287 39.89935322 64.00478287 37.21118164 66.97949219 C35.20111072 68.4868744 33.18585397 69.76628685 31 71 C29.8553125 71.86625 29.8553125 71.86625 28.6875 72.75 C20.89082682 76.37635962 11.81899547 76.31773258 3.375 76.25 C2.40304688 76.25773437 1.43109375 76.26546875 0.4296875 76.2734375 C-8.01851331 76.25072728 -15.41073432 75.30066167 -22.875 71.125 C-23.77992187 70.63257813 -24.68484375 70.14015625 -25.6171875 69.6328125 C-28.79565359 67.45478164 -30.67932735 65.61755231 -31.44140625 61.7734375 C-31.50134766 60.58621094 -31.50134766 60.58621094 -31.5625 59.375 C-31.88190458 54.87671883 -32.61630554 50.62473282 -33.59765625 46.2265625 C-34 44 -34 44 -34 40 C-34.99 39.67 -35.98 39.34 -37 39 C-37 38.34 -37 37.68 -37 37 C-38.65 36.67 -40.3 36.34 -42 36 C-42.89288071 29.86412375 -43.18292652 23.88456877 -43.1875 17.6875 C-43.19974609 16.79482422 -43.21199219 15.90214844 -43.22460938 14.98242188 C-43.22654297 14.12583984 -43.22847656 13.26925781 -43.23046875 12.38671875 C-43.23457764 11.61545654 -43.23868652 10.84419434 -43.24291992 10.04956055 C-43 8 -43 8 -41 5 C-40.01 5 -39.02 5 -38 5 C-37.67 4.01 -37.34 3.02 -37 2 C-11.0298471 -0.38776806 -11.0298471 -0.38776806 0 0 Z " fill="#C17D01" transform="translate(97,116)"/>
<path d="M0 0 C0.87720703 -0.00708984 1.75441406 -0.01417969 2.65820312 -0.02148438 C11.93833007 0.06741883 20.0070971 3.11039887 28.5625 6.4375 C28.5625 7.0975 28.5625 7.7575 28.5625 8.4375 C27.91023438 8.66824219 27.25796875 8.89898437 26.5859375 9.13671875 C20.95953636 11.23624602 17.0099948 13.43475468 12.5625 17.4375 C11.9025 17.4375 11.2425 17.4375 10.5625 17.4375 C10.5625 18.0975 10.5625 18.7575 10.5625 19.4375 C5.08630952 24.4375 5.08630952 24.4375 2.5625 24.4375 C2.5625 25.0975 2.5625 25.7575 2.5625 26.4375 C-6.86880825 32.21177035 -15.42759256 33.23993698 -26.4375 32.4375 C-28.79285173 31.84595684 -30.91805047 31.08404847 -33.1640625 30.171875 C-37.76634775 28.68522615 -42.63967741 28.71323693 -47.4375 28.4375 C-47.4375 32.7275 -47.4375 37.0175 -47.4375 41.4375 C-45.560625 41.39625 -43.68375 41.355 -41.75 41.3125 C-30.09074352 41.32518689 -18.86040774 43.05194411 -8.4375 48.4375 C-8.7675 49.4275 -9.0975 50.4175 -9.4375 51.4375 C-11.87890625 52.3515625 -11.87890625 52.3515625 -15 53.0625 C-16.01191406 53.30226562 -17.02382812 53.54203125 -18.06640625 53.7890625 C-24.85778757 55.09540004 -31.4728622 55.61047977 -38.37109375 55.67578125 C-39.20729752 55.683853 -40.04350128 55.69192474 -40.90504456 55.70024109 C-42.66901636 55.71399527 -44.4330138 55.72475567 -46.19702148 55.73266602 C-47.966309 55.74411824 -49.73556385 55.76446124 -51.50463867 55.79418945 C-63.74961727 55.99916946 -74.65573328 54.83540338 -86.4375 51.4375 C-86.7675 50.1175 -87.0975 48.7975 -87.4375 47.4375 C-75.69135897 41.97541184 -64.26251129 41.15563162 -51.4375 41.4375 C-51.4375 37.4775 -51.4375 33.5175 -51.4375 29.4375 C-50.4475 29.1075 -49.4575 28.7775 -48.4375 28.4375 C-48.4375 26.7875 -48.4375 25.1375 -48.4375 23.4375 C-47.9425 25.4175 -47.9425 25.4175 -47.4375 27.4375 C-44.1375 26.7775 -40.8375 26.1175 -37.4375 25.4375 C-37.1075 24.1175 -36.7775 22.7975 -36.4375 21.4375 C-27.74251561 8.19539367 -16.05506787 -0.36408713 0 0 Z " fill="#195909" transform="translate(149.4375,76.5625)"/>
<path d="M0 0 C0.495 2.97 0.495 2.97 1 6 C2.32 6 3.64 6 5 6 C5.33 4.02 5.66 2.04 6 0 C19.22386982 -0.42888226 32.11322841 0.85806012 44 7 C43.67 7.99 43.34 8.98 43 10 C40.55859375 10.9140625 40.55859375 10.9140625 37.4375 11.625 C36.42558594 11.86476562 35.41367188 12.10453125 34.37109375 12.3515625 C27.57971243 13.65790004 20.9646378 14.17297977 14.06640625 14.23828125 C13.23020248 14.246353 12.39399872 14.25442474 11.53245544 14.26274109 C9.76848364 14.27649527 8.0044862 14.28725567 6.24047852 14.29516602 C4.471191 14.30661824 2.70193615 14.32696124 0.93286133 14.35668945 C-11.31211727 14.56166946 -22.21823328 13.39790338 -34 10 C-34.33 8.68 -34.66 7.36 -35 6 C-23.66439284 0.72881473 -12.39735931 -0.40207652 0 0 Z " fill="#502A08" transform="translate(97,118)"/>
<path d="M0 0 C0 0.66 0 1.32 0 2 C-1.29292969 2.09796875 -2.58585937 2.1959375 -3.91796875 2.296875 C-13.23877888 3.0740579 -21.80419065 4.07499774 -30.6640625 7.1953125 C-33 8 -33 8 -35 8 C-34.67 8.99 -34.34 9.98 -34 11 C-31.52252007 11.91785159 -29.25334324 12.58213299 -26.69140625 13.16015625 C-25.93469131 13.33305679 -25.17797638 13.50595734 -24.39833069 13.68409729 C-16.11851955 15.4133745 -7.93696272 15.57019496 0.4934082 15.46655273 C3.06462018 15.43747602 5.63376969 15.44602883 8.20507812 15.45898438 C20.21108017 15.44248059 31.35366208 14.01214084 43 11 C43 10.34 43 9.68 43 9 C34.07139453 4.82065276 25.20628505 3.66374373 15.4375 2.875 C14.42880859 2.78863281 13.42011719 2.70226562 12.38085938 2.61328125 C9.92097635 2.40343341 7.46077098 2.19911533 5 2 C5 1.34 5 0.68 5 0 C6.49988961 -0.0276619 7.99993869 -0.0466861 9.5 -0.0625 C10.3353125 -0.07410156 11.170625 -0.08570312 12.03125 -0.09765625 C14.99215997 -0.0002579 17.86212891 0.36862086 20.79589844 0.76147461 C23.96430966 1.10435651 27.12518939 1.15829538 30.30932617 1.24023438 C48.75991995 1.75991995 48.75991995 1.75991995 54 7 C54.01665074 8.56423432 53.96308892 10.12935006 53.87890625 11.69140625 C53.83056641 12.63564453 53.78222656 13.57988281 53.73242188 14.55273438 C53.67634766 15.54595703 53.62027344 16.53917969 53.5625 17.5625 C53.51029297 18.55958984 53.45808594 19.55667969 53.40429688 20.58398438 C53.2741763 23.05627522 53.13919819 25.5282063 53 28 C52.34 28 51.68 28 51 28 C51 30.64 51 33.28 51 36 C50.67 36 50.34 36 50 36 C49.67 27.09 49.34 18.18 49 9 C47.68 8.34 46.36 7.68 45 7 C44.67 9.31 44.34 11.62 44 14 C42.35 14.66 40.7 15.32 39 16 C39 16.66 39 17.32 39 18 C38.34 18 37.68 18 37 18 C36.67 18.66 36.34 19.32 36 20 C33.12215483 20 30.62575185 19.86806685 27.80786133 19.49731445 C23.19907862 18.96380207 18.70665194 18.93467977 14.07421875 19.04296875 C12.38201905 19.06867772 10.68979719 19.09295985 8.99755859 19.1159668 C7.69416534 19.1347438 7.69416534 19.1347438 6.36444092 19.15390015 C-29.02303621 19.5980691 -29.02303621 19.5980691 -43 12 C-42.125 7.25 -42.125 7.25 -41 5 C-40.01 5 -39.02 5 -38 5 C-37.67 4.01 -37.34 3.02 -37 2 C-11.0298471 -0.38776806 -11.0298471 -0.38776806 0 0 Z " fill="#D9981C" transform="translate(97,116)"/>
<path d="M0 0 C2.61455364 3.12397957 3.91744207 6.07866499 5.1875 9.9375 C5.53167969 10.95714844 5.87585938 11.97679688 6.23046875 13.02734375 C6.95813069 15.83826121 7.15405496 18.11545361 7 21 C9.475 19.515 9.475 19.515 12 18 C12 18.99 12 19.98 12 21 C11.34 21 10.68 21 10 21 C10 21.66 10 22.32 10 23 C9.01 23.495 9.01 23.495 8 24 C7.15322688 26.31499197 7.15322688 26.31499197 6.4921875 29.12890625 C6.22792969 30.16337891 5.96367188 31.19785156 5.69140625 32.26367188 C5.42199219 33.35228516 5.15257812 34.44089844 4.875 35.5625 C4.59785156 36.65498047 4.32070312 37.74746094 4.03515625 38.87304688 C3.34948083 41.58028259 2.67145985 44.28920983 2 47 C2.99 47.495 2.99 47.495 4 48 C3.401875 48.144375 2.80375 48.28875 2.1875 48.4375 C0.43849596 48.8872439 -1.28677023 49.42892341 -3 50 C-3.94875 49.505 -4.8975 49.01 -5.875 48.5 C-9.46185063 46.7783117 -10.30138777 46.88930564 -14 48 C-15.61797321 48.94292478 -17.20123992 49.94724805 -18.75 51 C-23.64508178 54.07228857 -27.26216681 54.81490861 -33 55 C-32.67 54.34 -32.34 53.68 -32 53 C-31.01 53 -30.02 53 -29 53 C-29 52.34 -29 51.68 -29 51 C-30.32 50.67 -31.64 50.34 -33 50 C-28.97959015 49.30415983 -25.91736581 48.8299903 -22 50 C-21.83165067 48.22932584 -21.66538091 46.45845388 -21.5 44.6875 C-21.4071875 43.70136719 -21.314375 42.71523437 -21.21875 41.69921875 C-20.95961143 38.95297861 -20.95961143 38.95297861 -21 36 C-21.66 35.67 -22.32 35.34 -23 35 C-23 34.01 -23 33.02 -23 32 C-21.72799029 33.10281127 -20.45744147 34.20730769 -19.1875 35.3125 C-18.47980469 35.92738281 -17.77210937 36.54226562 -17.04296875 37.17578125 C-13.3771204 40.44911047 -13.3771204 40.44911047 -12 42 C-12 42.66 -12 43.32 -12 44 C-10.88625 44.185625 -10.88625 44.185625 -9.75 44.375 C-7.19858515 44.95486701 -5.2732427 45.73708739 -3 47 C-2.83177734 45.49373047 -2.83177734 45.49373047 -2.66015625 43.95703125 C-2.09379323 39.99049238 -0.85200063 36.43935211 0.5625 32.6875 C2.33013882 28.45064875 2.33013882 28.45064875 3 24 C-2.00932754 20.99440348 -5.32723489 20.70658112 -11 21 C-9.66666667 18.33333333 -8.33333333 15.66666667 -7 13 C-5.9790625 14.11375 -5.9790625 14.11375 -4.9375 15.25 C-1.96926868 18.24381953 1.28714872 20.03437285 5 22 C3.27068234 14.99102311 1.16032658 8.49711809 -2 2 C-1.34 1.34 -0.68 0.68 0 0 Z " fill="#0A6109" transform="translate(101,56)"/>
<path d="M0 0 C13.22386982 -0.42888226 26.11322841 0.85806012 38 7 C37 10 37 10 35.12109375 10.984375 C27.49369195 13.16046052 20.38603449 13.13046152 12.5 12.8125 C10.9056311 12.7491748 10.9056311 12.7491748 9.27905273 12.68457031 C0.85871898 12.23047014 0.85871898 12.23047014 -3 10 C-2.505 9.649375 -2.01 9.29875 -1.5 8.9375 C0.73063966 6.05625711 0.19980621 3.52990974 0 0 Z " fill="#57300C" transform="translate(103,118)"/>
<path d="M0 0 C0.66 0.33 1.32 0.66 2 1 C2 1.66 2 2.32 2 3 C1.34 3 0.68 3 0 3 C0 4.32 0 5.64 0 7 C-2 7 -4 7 -6 7 C-6.268125 7.598125 -6.53625 8.19625 -6.8125 8.8125 C-8.47370091 11.87260694 -9.81204519 13.62664277 -13.1875 14.6875 C-13.785625 14.790625 -14.38375 14.89375 -15 15 C-14.67 15.99 -14.34 16.98 -14 18 C-14.4375 20.6875 -14.4375 20.6875 -15 23 C-14.34 23.33 -13.68 23.66 -13 24 C-12.67 24.33 -12.34 24.66 -12 25 C-9.4473569 25.10115369 -6.92747177 25.13864958 -4.375 25.125 C-3.32505859 25.13080078 -3.32505859 25.13080078 -2.25390625 25.13671875 C2.26246695 25.12833958 6.54392139 24.7368319 11 24 C11 24.66 11 25.32 11 26 C1.56831696 29.04286946 -8.43929875 29.50621392 -17.7265625 25.734375 C-22.32884775 24.24772615 -27.20217741 24.27573693 -32 24 C-31.67 30.27 -31.34 36.54 -31 43 C-33.475 43.495 -33.475 43.495 -36 44 C-37 43 -37 43 -37.02172852 41.23413086 C-36.97459717 40.48526611 -36.92746582 39.73640137 -36.87890625 38.96484375 C-36.83056641 38.15595703 -36.78222656 37.34707031 -36.73242188 36.51367188 C-36.67634766 35.66353516 -36.62027344 34.81339844 -36.5625 33.9375 C-36.51029297 33.08349609 -36.45808594 32.22949219 -36.40429688 31.34960938 C-36.27421239 29.23278005 -36.13770029 27.11634756 -36 25 C-35.01 24.67 -34.02 24.34 -33 24 C-33 22.35 -33 20.7 -33 19 C-32.67 20.32 -32.34 21.64 -32 23 C-28.7 22.34 -25.4 21.68 -22 21 C-21.67 19.68 -21.34 18.36 -21 17 C-19.2578125 14.52734375 -19.2578125 14.52734375 -17.125 11.9375 C-16.42632812 11.08027344 -15.72765625 10.22304687 -15.0078125 9.33984375 C-11.09527866 4.78029556 -8.93586236 3.58996313 -3 2 C-2.01 1.34 -1.02 0.68 0 0 Z M-17 20 C-17 23 -17 23 -17 23 Z " fill="#0C4C05" transform="translate(134,81)"/>
<path d="M0 0 C1.49988961 -0.0276619 2.99993869 -0.0466861 4.5 -0.0625 C5.3353125 -0.07410156 6.170625 -0.08570312 7.03125 -0.09765625 C9.99215997 -0.0002579 12.86212891 0.36862086 15.79589844 0.76147461 C18.96430966 1.10435651 22.12518939 1.15829538 25.30932617 1.24023438 C43.75991995 1.75991995 43.75991995 1.75991995 49 7 C49.01665074 8.56423432 48.96308892 10.12935006 48.87890625 11.69140625 C48.83056641 12.63564453 48.78222656 13.57988281 48.73242188 14.55273438 C48.67634766 15.54595703 48.62027344 16.53917969 48.5625 17.5625 C48.51029297 18.55958984 48.45808594 19.55667969 48.40429688 20.58398438 C48.2741763 23.05627522 48.13919819 25.5282063 48 28 C47.34 28 46.68 28 46 28 C46 30.64 46 33.28 46 36 C45.67 36 45.34 36 45 36 C44.67 27.09 44.34 18.18 44 9 C42.68 8.34 41.36 7.68 40 7 C39.896875 8.11375 39.79375 9.2275 39.6875 10.375 C39.460625 11.57125 39.23375 12.7675 39 14 C35.68629 16.20914 34.6553979 16.22481553 30.8125 16.125 C29.91144531 16.10695312 29.01039063 16.08890625 28.08203125 16.0703125 C27.39496094 16.04710937 26.70789063 16.02390625 26 16 C26 15.34 26 14.68 26 14 C29.96 13.01 33.92 12.02 38 11 C38 10.34 38 9.68 38 9 C29.07139453 4.82065276 20.20628505 3.66374373 10.4375 2.875 C9.42880859 2.78863281 8.42011719 2.70226562 7.38085938 2.61328125 C4.92097635 2.40343341 2.46077098 2.19911533 0 2 C0 1.34 0 0.68 0 0 Z " fill="#CF9519" transform="translate(102,116)"/>
<path d="M0 0 C6.86968085 2.15957447 6.86968085 2.15957447 9 5 C9 5.66 9 6.32 9 7 C8.38125 7.144375 7.7625 7.28875 7.125 7.4375 C4.96741678 7.93152225 4.96741678 7.93152225 3 9 C3.08715017 10.93833996 3.19532964 12.8757429 3.3125 14.8125 C3.37050781 15.89144531 3.42851563 16.97039062 3.48828125 18.08203125 C4.03068507 21.17497517 4.55289624 22.13022903 7 24 C7.99 23.67 8.98 23.34 10 23 C10.04898438 23.63808594 10.09796875 24.27617187 10.1484375 24.93359375 C10.22320312 25.75988281 10.29796875 26.58617187 10.375 27.4375 C10.44460937 28.26121094 10.51421875 29.08492187 10.5859375 29.93359375 C10.72257812 30.61550781 10.85921875 31.29742187 11 32 C11.66 32.33 12.32 32.66 13 33 C13.41829026 35.31960963 13.73507922 37.65791278 14 40 C14.17660156 41.23621094 14.35320312 42.47242188 14.53515625 43.74609375 C15.0234375 47.1640625 15.51171875 50.58203125 16 54 C16.77730469 54.29648438 17.55460937 54.59296875 18.35546875 54.8984375 C20.94750259 55.97813254 22.83376775 57.23492187 25 59 C22 60 22 60 20.02734375 59.109375 C19.33769531 58.66078125 18.64804688 58.2121875 17.9375 57.75 C17.24527344 57.31171875 16.55304688 56.8734375 15.83984375 56.421875 C13.44881508 54.57403119 12.14361683 52.88944516 11.65625 49.87109375 C11.6046875 49.06800781 11.553125 48.26492187 11.5 47.4375 C11.1370575 42.93041399 10.38637051 38.63672622 9.40234375 34.2265625 C9 32 9 32 9 28 C8.01 27.67 7.02 27.34 6 27 C6 26.34 6 25.68 6 25 C4.35 24.67 2.7 24.34 1 24 C-0.32915021 16.02509872 -0.08801359 8.05813281 0 0 Z " fill="#6C5605" transform="translate(54,128)"/>
<path d="M0 0 C3.74637273 1.24879091 5.29013939 3.15795107 8 6 C8.763125 6.721875 9.52625 7.44375 10.3125 8.1875 C12 10 12 10 12 12 C12.7425 12.12375 13.485 12.2475 14.25 12.375 C16.80141485 12.95486701 18.7267573 13.73708739 21 15 C21.33 13.68 21.66 12.36 22 11 C22.99 11 23.98 11 25 11 C25 10.01 25 9.02 25 8 C25.66 8 26.32 8 27 8 C26.67 10.31 26.34 12.62 26 15 C26.66 15.33 27.32 15.66 28 16 C27.401875 16.144375 26.80375 16.28875 26.1875 16.4375 C24.43849596 16.8872439 22.71322977 17.42892341 21 18 C20.05125 17.505 19.1025 17.01 18.125 16.5 C14.53814937 14.7783117 13.69861223 14.88930564 10 16 C8.38202679 16.94292478 6.79876008 17.94724805 5.25 19 C0.35491822 22.07228857 -3.26216681 22.81490861 -9 23 C-8.67 22.34 -8.34 21.68 -8 21 C-7.01 21 -6.02 21 -5 21 C-5 20.34 -5 19.68 -5 19 C-6.32 18.67 -7.64 18.34 -9 18 C-4.97959015 17.30415983 -1.91736581 16.8299903 2 18 C2.16834933 16.22932584 2.33461909 14.45845388 2.5 12.6875 C2.5928125 11.70136719 2.685625 10.71523437 2.78125 9.69921875 C3.04038857 6.95297861 3.04038857 6.95297861 3 4 C2.34 3.67 1.68 3.34 1 3 C0.67 2.01 0.34 1.02 0 0 Z " fill="#177012" transform="translate(77,88)"/>
<path d="M0 0 C0 0.66 0 1.32 0 2 C-1.29292969 2.09796875 -2.58585937 2.1959375 -3.91796875 2.296875 C-13.23877888 3.0740579 -21.80419065 4.07499774 -30.6640625 7.1953125 C-33 8 -33 8 -35 8 C-34.67 8.99 -34.34 9.98 -34 11 C-30.48809191 12.22969878 -30.48809191 12.22969878 -27 13 C-27 13.33 -27 13.66 -27 14 C-33.21369499 15.01924246 -37.48351346 15.62926746 -43 12 C-42.125 7.25 -42.125 7.25 -41 5 C-40.01 5 -39.02 5 -38 5 C-37.67 4.01 -37.34 3.02 -37 2 C-11.0298471 -0.38776806 -11.0298471 -0.38776806 0 0 Z " fill="#CEA11C" transform="translate(97,116)"/>
<path d="M0 0 C0.66 0.33 1.32 0.66 2 1 C1.3594165 1.55179932 0.71883301 2.10359863 0.05883789 2.67211914 C-2.33358698 5.37717916 -2.60813414 6.70174643 -2.94140625 10.24609375 C-3.10479492 11.74946289 -3.10479492 11.74946289 -3.27148438 13.28320312 C-3.36751953 14.32412109 -3.46355469 15.36503906 -3.5625 16.4375 C-4.91273545 30.45381509 -4.91273545 30.45381509 -9.84155273 34.51879883 C-17.71895061 39.92454172 -27.46202135 39.46979761 -36.63378906 39.39111328 C-38.89187632 39.37487867 -41.14821346 39.39111139 -43.40625 39.41015625 C-44.85156642 39.40817623 -46.29688176 39.40433755 -47.7421875 39.3984375 C-49.0401123 39.39505371 -50.33803711 39.39166992 -51.67529297 39.38818359 C-55.13351417 38.98441125 -56.51786524 38.36770733 -59 36 C-57.86111328 36.24169922 -57.86111328 36.24169922 -56.69921875 36.48828125 C-51.72399779 37.17651139 -46.82915904 37.18425717 -41.8125 37.1875 C-40.83474609 37.19974609 -39.85699219 37.21199219 -38.84960938 37.22460938 C-29.15553332 37.24383094 -20.3324458 36.98483439 -12.75390625 30.4375 C-11 29 -11 29 -8.93115234 28.2121582 C-6.77888489 27.16969364 -6.77888489 27.16969364 -6.44165039 24.83276367 C-6.41063232 23.95338135 -6.37961426 23.07399902 -6.34765625 22.16796875 C-6.29287109 21.20439453 -6.23808594 20.24082031 -6.18164062 19.24804688 C-6.10267483 17.21953222 -6.0271133 15.19088197 -5.95507812 13.16210938 C-5.47257978 4.83762639 -5.47257978 4.83762639 -2.43359375 1.80078125 C-1.22896484 0.90939453 -1.22896484 0.90939453 0 0 Z " fill="#5CA331" transform="translate(142,154)"/>
<path d="M0 0 C0.85537972 12.54556924 -1.62804938 25.07665608 -8 36 C-8.66 35.67 -9.32 35.34 -10 35 C-10.33 35.66 -10.66 36.32 -11 37 C-11.66 36.67 -12.32 36.34 -13 36 C-11.82744291 32.66272214 -10.81131596 30.22562513 -8 28 C-7.34 28 -6.68 28 -6 28 C-5.91087781 24.16774573 -6.12132271 20.73437848 -7 17 C-6.34 17 -5.68 17 -5 17 C-3.89279265 12.57117061 -3.77674949 8.53942698 -4 4 C-4.66 3.34 -5.32 2.68 -6 2 C-3 0 -3 0 0 0 Z " fill="#17690D" transform="translate(151,28)"/>
<path d="M0 0 C0 2.64 0 5.28 0 8 C-6.80203375 8.37634203 -11.75690073 7.77471079 -18 5 C-18 4.01 -18 3.02 -18 2 C-11.84629161 0.176679 -6.40353322 -0.2361959 0 0 Z " fill="#401F07" transform="translate(80,122)"/>
<path d="M0 0 C3.66671713 -0.02713853 7.33323041 -0.0469062 11 -0.0625 C12.02996094 -0.07087891 13.05992188 -0.07925781 14.12109375 -0.08789062 C19.85025613 -0.10613637 25.33484101 0.13524616 31 1 C31 1.33 31 1.66 31 2 C22.09 2 13.18 2 4 2 C7.17055547 8.49015648 7.17055547 8.49015648 12 11 C12.33 11.99 12.66 12.98 13 14 C12.67 14.66 12.34 15.32 12 16 C12.99 16.33 13.98 16.66 15 17 C14.01 17.33 13.02 17.66 12 18 C11.34 17.67 10.68 17.34 10 17 C10 16.34 10 15.68 10 15 C9.34 15 8.68 15 8 15 C7.34 13.02 6.68 11.04 6 9 C5.34 9 4.68 9 4 9 C2.68 6.03 1.36 3.06 0 0 Z " fill="#095807" transform="translate(25,79)"/>
<path d="M0 0 C1.49988961 -0.0276619 2.99993869 -0.0466861 4.5 -0.0625 C5.3353125 -0.07410156 6.170625 -0.08570312 7.03125 -0.09765625 C9.99215997 -0.0002579 12.86212891 0.36862086 15.79589844 0.76147461 C18.96430966 1.10435651 22.12518939 1.15829538 25.30932617 1.24023438 C43.75991995 1.75991995 43.75991995 1.75991995 49 7 C49.01665074 8.56423432 48.96308892 10.12935006 48.87890625 11.69140625 C48.83056641 12.63564453 48.78222656 13.57988281 48.73242188 14.55273438 C48.67634766 15.54595703 48.62027344 16.53917969 48.5625 17.5625 C48.51029297 18.55958984 48.45808594 19.55667969 48.40429688 20.58398438 C48.2741763 23.05627522 48.13919819 25.5282063 48 28 C47.67 28 47.34 28 47 28 C47 21.4 47 14.8 47 8 C39.84387715 5.13755086 33.40533097 3.72998392 25.78125 3.3671875 C25.03790405 3.32562531 24.29455811 3.28406311 23.52868652 3.24124146 C21.18611644 3.11191091 18.84315191 2.99326787 16.5 2.875 C14.89839896 2.78847077 13.2968358 2.70123751 11.6953125 2.61328125 C7.79726492 2.40072321 3.89882626 2.19773891 0 2 C0 1.34 0 0.68 0 0 Z " fill="#80A32F" transform="translate(102,116)"/>
<path d="M0 0 C7.54614227 0.68601293 14.25890228 2.49280727 21 6 C20.67 6.99 20.34 7.98 20 9 C18.37681021 9.36237263 16.7513642 9.71465157 15.125 10.0625 C14.22007812 10.25972656 13.31515625 10.45695313 12.3828125 10.66015625 C10 11 10 11 8 10 C8 8.02 8 6.04 8 4 C5.36 3.01 2.72 2.02 0 1 C0 0.67 0 0.34 0 0 Z " fill="#683809" transform="translate(120,119)"/>
<path d="M0 0 C1.14339844 0.00902344 2.28679687 0.01804688 3.46484375 0.02734375 C4.32207031 0.03894531 5.17929688 0.05054688 6.0625 0.0625 C6.0625 0.7225 6.0625 1.3825 6.0625 2.0625 C5.4025 2.0625 4.7425 2.0625 4.0625 2.0625 C3.7325 2.7225 3.4025 3.3825 3.0625 4.0625 C0.19956955 4.0625 -2.28298336 3.9356253 -5.08569336 3.56860352 C-9.92815156 3.00814497 -14.69616516 2.93450372 -19.56640625 2.96484375 C-20.87906715 2.96696617 -20.87906715 2.96696617 -22.21824646 2.96913147 C-24.97886762 2.97467281 -27.73940388 2.98721388 -30.5 3 C-32.38606653 3.0050226 -34.27213434 3.00958417 -36.15820312 3.01367188 C-40.75133417 3.02462293 -45.34440275 3.04184616 -49.9375 3.0625 C-49.9375 2.4025 -49.9375 1.7425 -49.9375 1.0625 C-48.88361084 1.06773682 -47.82972168 1.07297363 -46.74389648 1.07836914 C-42.80966043 1.09655784 -38.87542805 1.10798245 -34.94116211 1.11743164 C-33.24291355 1.12244027 -31.54466926 1.12924906 -29.84643555 1.13793945 C-27.39631085 1.15015773 -24.9462435 1.15576314 -22.49609375 1.16015625 C-21.74476669 1.16531754 -20.99343964 1.17047882 -20.21934509 1.17579651 C-13.41431814 1.17651017 -6.80882669 -0.07019409 0 0 Z " fill="#D79002" transform="translate(129.9375,131.9375)"/>
<path d="M0 0 C4.75 1.875 4.75 1.875 7 3 C8.44512437 3.21782467 9.89736678 3.38973668 11.3515625 3.53515625 C12.20234375 3.62216797 13.053125 3.70917969 13.9296875 3.79882812 C14.81914063 3.88583984 15.70859375 3.97285156 16.625 4.0625 C17.5221875 4.15337891 18.419375 4.24425781 19.34375 4.33789062 C21.56217272 4.56209292 23.7808976 4.78264566 26 5 C26 5.33 26 5.66 26 6 C20.72 6 15.44 6 10 6 C10.33 6.66 10.66 7.32 11 8 C10.67 8.66 10.34 9.32 10 10 C9.030625 9.690625 8.06125 9.38125 7.0625 9.0625 C2.76335509 7.82032903 -1.55342634 7.38315147 -6 7 C-4.6875 5.5 -4.6875 5.5 -3 4 C-2.01 4 -1.02 4 0 4 C0 2.68 0 1.36 0 0 Z " fill="#30B245" transform="translate(62,72)"/>
<path d="M0 0 C0.66 0.33 1.32 0.66 2 1 C1.67 1.33 1.34 1.66 1 2 C0.90100559 3.39432686 0.86920437 4.79357106 0.8671875 6.19140625 C0.86589844 7.05443359 0.86460938 7.91746094 0.86328125 8.80664062 C0.86714844 9.71607422 0.87101562 10.62550781 0.875 11.5625 C0.87113281 12.44486328 0.86726563 13.32722656 0.86328125 14.23632812 C0.8711834 19.58213358 1.22234609 24.71071902 2 30 C2.598125 30.103125 3.19625 30.20625 3.8125 30.3125 C6.28243264 31.08876455 7.32251235 32.07088921 9 34 C8.67 34.66 8.34 35.32 8 36 C7.4225 35.525625 6.845 35.05125 6.25 34.5625 C4.07417916 33.0515133 2.57397552 32.45963849 0 32 C0 31.34 0 30.68 0 30 C-0.66 30 -1.32 30 -2 30 C-2.04939662 26.04903022 -2.08571755 22.0981797 -2.10986328 18.14697266 C-2.12488107 16.1408864 -2.15028981 14.13488676 -2.17578125 12.12890625 C-2.18544922 10.24365234 -2.18544922 10.24365234 -2.1953125 8.3203125 C-2.20578613 7.15773926 -2.21625977 5.99516602 -2.22705078 4.79736328 C-2 2 -2 2 0 0 Z " fill="#579A32" transform="translate(54,122)"/>
<path d="M0 0 C0 0.66 0 1.32 0 2 C-1.06436279 2.08564209 -2.12872559 2.17128418 -3.2253418 2.25952148 C-7.18587262 2.57898259 -11.14607933 2.90231822 -15.10620117 3.22680664 C-16.81802964 3.36653122 -18.52994345 3.50521432 -20.24194336 3.64282227 C-22.70710219 3.84115192 -25.17192667 4.04326316 -27.63671875 4.24609375 C-28.77919319 4.33678383 -28.77919319 4.33678383 -29.94474792 4.42930603 C-33.69221045 4.74136537 -37.33221486 5.15992821 -41 6 C-40.01 5.67 -39.02 5.34 -38 5 C-37.67 4.01 -37.34 3.02 -37 2 C-11.0298471 -0.38776806 -11.0298471 -0.38776806 0 0 Z " fill="#91A834" transform="translate(97,116)"/>
<path d="M0 0 C0.08755672 4.35403865 0.14057969 8.70784877 0.1875 13.0625 C0.21263672 14.29162109 0.23777344 15.52074219 0.26367188 16.78710938 C0.31631874 23.29777171 0.23999169 28.27686507 -3 34 C-3.33 34 -3.66 34 -4 34 C-3.75443359 32.09927734 -3.75443359 32.09927734 -3.50390625 30.16015625 C-2.92021092 24.90689827 -2.88714051 19.71749915 -2.9375 14.4375 C-2.94201172 13.52419922 -2.94652344 12.61089844 -2.95117188 11.66992188 C-2.9628126 9.44654262 -2.97916149 7.22330879 -3 5 C-3.66 5 -4.32 5 -5 5 C-5 4.01 -5 3.02 -5 2 C-6.32 1.67 -7.64 1.34 -9 1 C-5.8035914 -0.06546953 -3.34252724 -0.07427838 0 0 Z " fill="#116209" transform="translate(110,16)"/>
<path d="M0 0 C1.65 0 3.3 0 5 0 C4.35681657 2.4590548 3.71057848 4.91723524 3.0625 7.375 C2.88009766 8.07367188 2.69769531 8.77234375 2.50976562 9.4921875 C1.11328125 14.7734375 1.11328125 14.7734375 0 17 C-0.66 17 -1.32 17 -2 17 C-2 17.99 -2 18.98 -2 20 C-2.66 20 -3.32 20 -4 20 C-4.33 20.99 -4.66 21.98 -5 23 C-4.57864714 16.57436889 -3.2331125 11.3617259 -0.83984375 5.3828125 C0.16620786 2.94951456 0.16620786 2.94951456 0 0 Z " fill="#0C5604" transform="translate(104,79)"/>
<path d="M0 0 C0.66 0.33 1.32 0.66 2 1 C1.03803711 1.82661133 1.03803711 1.82661133 0.05664062 2.66992188 C-2.34516556 5.39105652 -2.59812203 6.71648494 -2.90625 10.28125 C-3.01066406 11.28800781 -3.11507812 12.29476562 -3.22265625 13.33203125 C-3.31417969 14.37746094 -3.40570313 15.42289063 -3.5 16.5 C-3.68160672 18.5744092 -3.87893574 20.64751623 -4.09375 22.71875 C-4.21266602 24.09450195 -4.21266602 24.09450195 -4.33398438 25.49804688 C-5.35683088 29.34047025 -7.75972809 31.18607156 -11 33.3125 C-13.40341668 34.13867449 -14.63986261 33.84290621 -17 33 C-12 30 -12 30 -9.38671875 29.07421875 C-6.49818242 26.56388685 -6.58021814 25.77216137 -6.25 22.0703125 C-6.14365534 20.0896432 -6.06123789 18.10757661 -6 16.125 C-5.65429469 5.01921684 -5.65429469 5.01921684 -2.4375 1.8046875 C-1.633125 1.20914063 -0.82875 0.61359375 0 0 Z " fill="#ADAA20" transform="translate(142,154)"/>
<path d="M0 0 C2.475 0.99 2.475 0.99 5 2 C5 5.96 5 9.92 5 14 C2.69 13.01 0.38 12.02 -2 11 C-1.40049704 7.31733897 -0.75241109 3.65456815 0 0 Z " fill="#D38E01" transform="translate(142,123)"/>
<path d="M0 0 C0.66 0 1.32 0 2 0 C1.53083036 2.65862794 0.95237682 5.14003242 0.08203125 7.69921875 C-1.31895889 11.97299732 -2.37900729 16.32252468 -3.41210938 20.69726562 C-4.97833014 26.89350952 -4.97833014 26.89350952 -8 29 C-8.66 29 -9.32 29 -10 29 C-10.33 25.37 -10.66 21.74 -11 18 C-10.34 18.33 -9.68 18.66 -9 19 C-8.375 22.0625 -8.375 22.0625 -8 25 C-5.69590072 20.18233786 -4.48691998 15.75706564 -3.5390625 10.51171875 C-2.74772921 6.82456435 -1.42117493 3.48833847 0 0 Z " fill="#44B04E" transform="translate(118,48)"/>
<path d="M0 0 C1.32 0 2.64 0 4 0 C4.06473895 3.54355841 4.04021966 7.08120081 4 10.625 C4.01933594 11.62402344 4.03867188 12.62304688 4.05859375 13.65234375 C3.91448961 20.90558559 3.91448961 20.90558559 1.2578125 24.08496094 C-0.79573837 25.71068871 -2.57182702 27.01444049 -5 28 C-5.99 27.67 -6.98 27.34 -8 27 C-7.34 26.67 -6.68 26.34 -6 26 C-5.67 25.01 -5.34 24.02 -5 23 C-3.68 23 -2.36 23 -1 23 C-1 22.34 -1 21.68 -1 21 C-0.34 21 0.32 21 1 21 C0.67 14.07 0.34 7.14 0 0 Z " fill="#E8A003" transform="translate(133,159)"/>
<path d="M0 0 C5.68115891 -0.55425941 8.29350639 1.15707639 13 4 C13.02940458 7.16664666 13.04693315 10.33325747 13.0625 13.5 C13.07087891 14.386875 13.07925781 15.27375 13.08789062 16.1875 C13.10763596 21.55823086 12.78835893 26.68633663 12 32 C11.67 32 11.34 32 11 32 C10.67 23.09 10.34 14.18 10 5 C5.05 3.02 5.05 3.02 0 1 C0 0.67 0 0.34 0 0 Z " fill="#B2A21B" transform="translate(136,120)"/>
<path d="M0 0 C7.62951555 -0.34855655 13.92444501 -0.0017506 21 3 C18 5 18 5 14 5 C14 5.99 14 6.98 14 8 C12.02 8.33 10.04 8.66 8 9 C8 8.34 8 7.68 8 7 C8.66 6.67 9.32 6.34 10 6 C10.65213292 3.97536745 10.65213292 3.97536745 11 2 C9.54257537 1.91903197 8.08387193 1.86082226 6.625 1.8125 C5.40683594 1.76029297 5.40683594 1.76029297 4.1640625 1.70703125 C3.44992188 1.80371094 2.73578125 1.90039062 2 2 C1.01 3.485 1.01 3.485 0 5 C0 3.35 0 1.7 0 0 Z " fill="#37A644" transform="translate(102,105)"/>
<path d="M0 0 C2.93167071 1.38038307 5.51306023 2.95825333 8.125 4.875 C8.80820313 5.36742187 9.49140625 5.85984375 10.1953125 6.3671875 C12.122076 8.11044971 13.00143228 9.62196759 14 12 C12.68 12 11.36 12 10 12 C9.01 13.485 9.01 13.485 8 15 C7.34 15 6.68 15 6 15 C5.98582031 14.38511719 5.97164063 13.77023438 5.95703125 13.13671875 C5.81118299 10.66518198 5.60808717 8.40237257 5 6 C2.55690423 4.08255407 2.55690423 4.08255407 0 3 C0 2.01 0 1.02 0 0 Z " fill="#15620C" transform="translate(74,48)"/>
<path d="M0 0 C4.8 2.46153846 4.8 2.46153846 5.8125 5.1875 C5.874375 5.785625 5.93625 6.38375 6 7 C6.66 7 7.32 7 8 7 C11 10.46153846 11 10.46153846 11 13 C11.639375 13.28875 12.27875 13.5775 12.9375 13.875 C15 15 15 15 16 17 C14.35 16.67 12.7 16.34 11 16 C11 16.66 11 17.32 11 18 C10.34 18 9.68 18 9 18 C9.33 16.35 9.66 14.7 10 13 C9.01 13 8.02 13 7 13 C6.74605469 12.45730469 6.49210937 11.91460937 6.23046875 11.35546875 C5.71419922 10.28232422 5.71419922 10.28232422 5.1875 9.1875 C4.85105469 8.47980469 4.51460937 7.77210937 4.16796875 7.04296875 C3.08586675 4.94242539 3.08586675 4.94242539 1.36328125 3.36328125 C0.91339844 2.91339844 0.46351562 2.46351562 0 2 C0 1.34 0 0.68 0 0 Z " fill="#3CA74A" transform="translate(40,51)"/>
<path d="M0 0 C3.57321129 0.40604674 5.1399565 1.92617451 7.75 4.3125 C5.16073669 6.90176331 3.72294721 6.68648043 0.125 6.9375 C-0.87789063 7.01226562 -1.88078125 7.08703125 -2.9140625 7.1640625 C-4.07035156 7.23753906 -4.07035156 7.23753906 -5.25 7.3125 C-5.25 6.6525 -5.25 5.9925 -5.25 5.3125 C-4.59 4.9825 -3.93 4.6525 -3.25 4.3125 C-3.25 3.3225 -3.25 2.3325 -3.25 1.3125 C-2.25 0.3125 -2.25 0.3125 0 0 Z " fill="#C4910D" transform="translate(117.25,183.6875)"/>
<path d="M0 0 C3.16115776 1.36983503 3.9927092 1.9890638 6 5 C8.58380177 5.25030977 8.58380177 5.25030977 11 5 C10.67 5.99 10.34 6.98 10 8 C17.425 8.99 17.425 8.99 25 10 C25 10.33 25 10.66 25 11 C16.5892128 11.6503186 9.99423198 11.04327923 3 6 C0 2.54505495 0 2.54505495 0 0 Z " fill="#074902" transform="translate(42,100)"/>
<path d="M0 0 C0 0.66 0 1.32 0 2 C-0.65226562 2.23074219 -1.30453125 2.46148437 -1.9765625 2.69921875 C-7.60296364 4.79874602 -11.5525052 6.99725468 -16 11 C-16.66 11 -17.32 11 -18 11 C-16.8829081 7.98385187 -15.3874224 6.35491331 -12.9375 4.375 C-9.99175287 2.32880603 -9.99175287 2.32880603 -9 0 C-5.52176885 -1.15941038 -3.54104422 -0.70820884 0 0 Z " fill="#186E0E" transform="translate(178,83)"/>
<path d="M0 0 C13.365 0.495 13.365 0.495 27 1 C27 1.66 27 2.32 27 3 C22.87501462 3.02892385 18.75005515 3.04677267 14.625 3.0625 C12.8615625 3.07506836 12.8615625 3.07506836 11.0625 3.08789062 C9.38027344 3.09272461 9.38027344 3.09272461 7.6640625 3.09765625 C6.10872803 3.10551147 6.10872803 3.10551147 4.52197266 3.11352539 C2 3 2 3 0 2 C0 1.34 0 0.68 0 0 Z " fill="#3FB54D" transform="translate(25,76)"/>
<path d="M0 0 C1.52152079 0.11633358 3.04220723 0.2435887 4.5625 0.375 C5.40941406 0.44460937 6.25632812 0.51421875 7.12890625 0.5859375 C10 1 10 1 13.28125 2 C17.55684425 3.14973963 21.53410988 3.4438837 25.9375 3.625 C26.71673828 3.66367188 27.49597656 3.70234375 28.29882812 3.7421875 C30.19887379 3.83544127 32.09940278 3.91875962 34 4 C34 4.33 34 4.66 34 5 C30.35423608 5.05878077 26.70859648 5.0938558 23.0625 5.125 C22.04091797 5.14175781 21.01933594 5.15851563 19.96679688 5.17578125 C7.40645267 5.25603904 7.40645267 5.25603904 2 3 C1.34 2.01 0.68 1.02 0 0 Z " fill="#927B10" transform="translate(78,187)"/>
<path d="M0 0 C0.99 0.33 1.98 0.66 3 1 C-0.69644793 4.82391165 -3.29207787 7.15583286 -8.6875 7.625 C-9.49574219 7.69976562 -10.30398437 7.77453125 -11.13671875 7.8515625 C-12.05904297 7.92503906 -12.05904297 7.92503906 -13 8 C-12.67 7.34 -12.34 6.68 -12 6 C-11.01 6 -10.02 6 -9 6 C-9 5.34 -9 4.68 -9 4 C-10.32 3.67 -11.64 3.34 -13 3 C-5.57142857 1.71428571 -5.57142857 1.71428571 -2 3 C-1.34 2.01 -0.68 1.02 0 0 Z " fill="#0F6309" transform="translate(81,103)"/>
<path d="M0 0 C1.32 0 2.64 0 4 0 C5.35439668 2.70879335 5.06501451 5.00933268 5 8 C3.34385343 8.38218767 1.67542976 8.71395102 0 9 C-1 8 -1 8 -1.125 5.0625 C-1 2 -1 2 0 0 Z " fill="#274707" transform="translate(98,116)"/>
<path d="M0 0 C3.75 -0.375 3.75 -0.375 7 0 C5.71937515 1.7074998 4.38232443 3.37373596 3 5 C2.34 5 1.68 5 1 5 C1 5.66 1 6.32 1 7 C-3.38461538 10 -3.38461538 10 -6 10 C-6 8 -6 8 -4 6 C-3.443125 4.96875 -2.88625 3.9375 -2.3125 2.875 C-1.1678125 1.451875 -1.1678125 1.451875 0 0 Z " fill="#15680C" transform="translate(151,96)"/>
<path d="M0 0 C0.66 0.33 1.32 0.66 2 1 C-1.4324283 4.82847772 -4.93519189 7.80362257 -10.26708984 8.14526367 C-12.81508107 8.07212642 -15.33522257 7.90361058 -17.875 7.6875 C-18.75414063 7.62626953 -19.63328125 7.56503906 -20.5390625 7.50195312 C-22.69382674 7.34971435 -24.84712169 7.1769197 -27 7 C-27 6.67 -27 6.34 -27 6 C-25.91460937 5.95101562 -24.82921875 5.90203125 -23.7109375 5.8515625 C-22.26560216 5.77648014 -20.82029081 5.70093472 -19.375 5.625 C-18.66214844 5.5940625 -17.94929688 5.563125 -17.21484375 5.53125 C-11.65381643 5.2251384 -7.07298682 4.2720601 -2.25 1.3125 C-1.13625 0.6628125 -1.13625 0.6628125 0 0 Z " fill="#349A3A" transform="translate(83,105)"/>
<path d="M0 0 C1.9375 0.375 1.9375 0.375 4 1 C4.33 1.66 4.66 2.32 5 3 C5.66 3.309375 6.32 3.61875 7 3.9375 C9 5 9 5 10 8 C9.67 8.66 9.34 9.32 9 10 C9.99 10.33 10.98 10.66 12 11 C11.01 11.33 10.02 11.66 9 12 C8.34 11.67 7.68 11.34 7 11 C7 10.34 7 9.68 7 9 C6.34 9 5.68 9 5 9 C4.34 7.02 3.68 5.04 3 3 C2.34 3 1.68 3 1 3 C0.67 2.01 0.34 1.02 0 0 Z " fill="#074B05" transform="translate(28,85)"/>
<path d="M0 0 C0.62003906 0.34160156 1.24007812 0.68320313 1.87890625 1.03515625 C-5.17579835 7.07454356 -5.17579835 7.07454356 -9.12109375 6.91015625 C-9.78109375 6.62140625 -10.44109375 6.33265625 -11.12109375 6.03515625 C-3.77624514 -1.7177395 -3.77624514 -1.7177395 0 0 Z " fill="#37AF43" transform="translate(173.12109375,87.96484375)"/>
<path d="M0 0 C4.75 1.875 4.75 1.875 7 3 C8.44512437 3.21782467 9.89736678 3.38973668 11.3515625 3.53515625 C12.20234375 3.62216797 13.053125 3.70917969 13.9296875 3.79882812 C14.81914063 3.88583984 15.70859375 3.97285156 16.625 4.0625 C17.5221875 4.15337891 18.419375 4.24425781 19.34375 4.33789062 C21.56217272 4.56209292 23.7808976 4.78264566 26 5 C26 5.33 26 5.66 26 6 C24.08574219 5.98259766 24.08574219 5.98259766 22.1328125 5.96484375 C20.46354313 5.95546583 18.79427217 5.94636563 17.125 5.9375 C16.28324219 5.92912109 15.44148438 5.92074219 14.57421875 5.91210938 C13.76855469 5.90888672 12.96289062 5.90566406 12.1328125 5.90234375 C11.38918457 5.89710693 10.64555664 5.89187012 9.87939453 5.88647461 C7.90867432 5.88213364 7.90867432 5.88213364 6 7 C6 6.34 6 5.68 6 5 C5.071875 4.7834375 5.071875 4.7834375 4.125 4.5625 C2 4 2 4 0 3 C0 2.01 0 1.02 0 0 Z " fill="#309A38" transform="translate(62,72)"/>
<path d="M0 0 C0.42410156 0.39832031 0.84820312 0.79664062 1.28515625 1.20703125 C5.32767445 4.85862461 8.88650302 7.12157254 14 9 C14 9.33 14 9.66 14 10 C7.25 9.125 7.25 9.125 5 8 C3.62657169 7.9310528 2.24997898 7.91532292 0.875 7.9375 C-1.043125 7.9684375 -1.043125 7.9684375 -3 8 C-2.505 7.05125 -2.01 6.1025 -1.5 5.125 C0.14424369 2.27721834 0.14424369 2.27721834 0 0 Z " fill="#136C10" transform="translate(93,69)"/>
<path d="M0 0 C1.29853064 2.59706128 0.87175317 3.93155893 0.44140625 6.7890625 C0.30283203 7.73007813 0.16425781 8.67109375 0.02148438 9.640625 C-0.12998047 10.62546875 -0.28144531 11.6103125 -0.4375 12.625 C-0.58509766 13.61757812 -0.73269531 14.61015625 -0.88476562 15.6328125 C-1.25089765 18.08944027 -1.62287314 20.54504009 -2 23 C-2.66 23 -3.32 23 -4 23 C-3.7229061 19.54033562 -3.42586237 16.08267202 -3.125 12.625 C-3.04636719 11.64015625 -2.96773437 10.6553125 -2.88671875 9.640625 C-2.80292969 8.69960937 -2.71914062 7.75859375 -2.6328125 6.7890625 C-2.55949707 5.91975098 -2.48618164 5.05043945 -2.41064453 4.15478516 C-2 2 -2 2 0 0 Z " fill="#4DAA31" transform="translate(141,157)"/>
<path d="M0 0 C0.66 0.99 1.32 1.98 2 3 C1.01 4.485 1.01 4.485 0 6 C-0.24107326 8.28648848 -0.24107326 8.28648848 -0.125 10.6875 C-0.10695313 11.49574219 -0.08890625 12.30398437 -0.0703125 13.13671875 C-0.04710938 13.75160156 -0.02390625 14.36648437 0 15 C0.66 15.33 1.32 15.66 2 16 C1.34 16.99 0.68 17.98 0 19 C-0.70133599 17.42274653 -1.385583 15.83788667 -2.0625 14.25 C-2.44535156 13.36828125 -2.82820313 12.4865625 -3.22265625 11.578125 C-4.0633213 8.78998966 -4.04099743 7.6703847 -3 5 C-2.0398183 3.31008021 -1.04644066 1.63790712 0 0 Z " fill="#389F3D" transform="translate(106,50)"/>
<path d="M0 0 C-0.74765625 0.53109375 -1.4953125 1.0621875 -2.265625 1.609375 C-3.25046875 2.31578125 -4.2353125 3.0221875 -5.25 3.75 C-6.22453125 4.44609375 -7.1990625 5.1421875 -8.203125 5.859375 C-10.69233296 7.76452299 -12.84971939 9.72684621 -15 12 C-15.66 11.67 -16.32 11.34 -17 11 C-12.375 5.25 -12.375 5.25 -9 3 C-9 2.01 -9 1.02 -9 0 C-2.25 -1.125 -2.25 -1.125 0 0 Z " fill="#43B250" transform="translate(133,80)"/>
<path d="M0 0 C2.50961144 1.66983817 3.17191085 3.08454472 4.33203125 5.84375 C4.67878906 6.6378125 5.02554688 7.431875 5.3828125 8.25 C6.01953125 10.34375 6.01953125 10.34375 5.01953125 12.34375 C4.02953125 12.01375 3.03953125 11.68375 2.01953125 11.34375 C0.57173905 8.44816559 0.01953125 6.60186062 0.01953125 3.34375 C-0.64046875 3.34375 -1.30046875 3.34375 -1.98046875 3.34375 C-1.98046875 2.68375 -1.98046875 2.02375 -1.98046875 1.34375 C-2.64046875 1.01375 -3.30046875 0.68375 -3.98046875 0.34375 C-1.98046875 -0.65625 -1.98046875 -0.65625 0 0 Z " fill="#3AA543" transform="translate(97.98046875,56.65625)"/>
<path d="M0 0 C0.66 0 1.32 0 2 0 C2.06058594 0.76699219 2.12117188 1.53398437 2.18359375 2.32421875 C2.75182704 5.1776609 2.75182704 5.1776609 5.28515625 6.58203125 C6.65994141 7.19111328 6.65994141 7.19111328 8.0625 7.8125 C9.44115234 8.44091797 9.44115234 8.44091797 10.84765625 9.08203125 C11.55792969 9.38496094 12.26820312 9.68789062 13 10 C12.67 10.66 12.34 11.32 12 12 C7.51775349 10.74914051 4.27211231 9.36560123 1 6 C0.1875 2.75 0.1875 2.75 0 0 Z " fill="#70630C" transform="translate(66,176)"/>
<path d="M0 0 C0.33 0 0.66 0 1 0 C1.50097308 3.13108173 1.67927102 5.88751934 1 9 C-1.82478411 12.13434949 -5.2537495 14.12687475 -9 16 C-8.375 13.125 -8.375 13.125 -7 10 C-3.875 8.625 -3.875 8.625 -1 8 C-0.67 5.36 -0.34 2.72 0 0 Z " fill="#C6960C" transform="translate(146,143)"/>
<path d="M0 0 C0.33 0.66 0.66 1.32 1 2 C0.0625 4.125 0.0625 4.125 -1 6 C-1.66 6 -2.32 6 -3 6 C-2.67 6.99 -2.34 7.98 -2 9 C-2.62627128 11.01301483 -3.29835358 13.01200182 -4 15 C-4.36920191 16.99369031 -4.71325582 18.99279077 -5 21 C-5.33 21 -5.66 21 -6 21 C-6.24900626 14.15232798 -6.42749638 6.92727504 -1.875 1.4375 C-1.25625 0.963125 -0.6375 0.48875 0 0 Z " fill="#095103" transform="translate(123,47)"/>
<path d="M0 0 C-0.99 1.485 -0.99 1.485 -2 3 C-4.15478516 3.34057617 -4.15478516 3.34057617 -6.7890625 3.29296875 C-7.73007813 3.28330078 -8.67109375 3.27363281 -9.640625 3.26367188 C-10.62546875 3.23853516 -11.6103125 3.21339844 -12.625 3.1875 C-14.11386719 3.16719727 -14.11386719 3.16719727 -15.6328125 3.14648438 C-18.08908072 3.11105743 -20.54427285 3.06166196 -23 3 C-23 2.67 -23 2.34 -23 2 C-21.60587891 1.92652344 -21.60587891 1.92652344 -20.18359375 1.8515625 C-15.31775208 1.55727802 -4.03004662 -2.01502331 0 0 Z " fill="#359939" transform="translate(147,107)"/>
<path d="M0 0 C0.66 0 1.32 0 2 0 C1.67 2.31 1.34 4.62 1 7 C1.66 7.33 2.32 7.66 3 8 C2.401875 8.144375 1.80375 8.28875 1.1875 8.4375 C-0.56150404 8.8872439 -2.28677023 9.42892341 -4 10 C-5.32 8.68 -6.64 7.36 -8 6 C-6.68 6.33 -5.36 6.66 -4 7 C-3.67 5.68 -3.34 4.36 -3 3 C-2.01 3 -1.02 3 0 3 C0 2.01 0 1.02 0 0 Z " fill="#126310" transform="translate(102,96)"/>
<path d="M0 0 C1.62566606 0.47690204 3.25051311 0.95659666 4.875 1.4375 C5.77992187 1.70433594 6.68484375 1.97117187 7.6171875 2.24609375 C10 3 10 3 12 4 C12 4.66 12 5.32 12 6 C7.97007218 5.44687265 3.97977076 4.8441938 0 4 C0 2.68 0 1.36 0 0 Z " fill="#156D10" transform="translate(64,82)"/>
<path d="M0 0 C0.66 0.66 1.32 1.32 2 2 C1.9765625 5.0390625 1.9765625 5.0390625 1.625 8.625 C1.51414063 9.81351563 1.40328125 11.00203125 1.2890625 12.2265625 C1.19367188 13.14179687 1.09828125 14.05703125 1 15 C0.01 15 -0.98 15 -2 15 C-3.53760842 11.92478317 -2.36599236 9.65324882 -1.5625 6.375 C-1.27503906 5.18648437 -0.98757812 3.99796875 -0.69140625 2.7734375 C-0.46324219 1.85820313 -0.23507813 0.94296875 0 0 Z " fill="#37A33E" transform="translate(149,43)"/>
<path d="M0 0 C3.96 1.98 3.96 1.98 8 4 C8 4.99 8 5.98 8 7 C5.69 7 3.38 7 1 7 C0.67 4.69 0.34 2.38 0 0 Z " fill="#915702" transform="translate(55,128)"/>
<path d="M0 0 C-0.67546875 0.18175781 -1.3509375 0.36351563 -2.046875 0.55078125 C-3.38492188 0.92783203 -3.38492188 0.92783203 -4.75 1.3125 C-5.63171875 1.55613281 -6.5134375 1.79976563 -7.421875 2.05078125 C-10.05967897 2.86683503 -10.05967897 2.86683503 -12.078125 4.66796875 C-14 6 -14 6 -16.25 5.6875 C-16.8275 5.460625 -17.405 5.23375 -18 5 C-12.0538548 0.91013871 -7.34974249 -2.04159514 0 0 Z " fill="#095707" transform="translate(144,79)"/>
<path d="M0 0 C2.475 0.99 2.475 0.99 5 2 C4.67 3.65 4.34 5.3 4 7 C2.35 7 0.7 7 -1 7 C-0.67 4.69 -0.34 2.38 0 0 Z " fill="#DE9803" transform="translate(142,123)"/>
<path d="M0 0 C0 0.66 0 1.32 0 2 C-0.68707031 2.19335938 -1.37414062 2.38671875 -2.08203125 2.5859375 C-2.98308594 2.84632812 -3.88414062 3.10671875 -4.8125 3.375 C-5.70582031 3.63023438 -6.59914062 3.88546875 -7.51953125 4.1484375 C-10.20467896 4.95266661 -10.20467896 4.95266661 -13 7 C-13.33 6.67 -13.66 6.34 -14 6 C-15.34747084 5.76924918 -16.70377565 5.58846937 -18.0625 5.4375 C-19.361875 5.293125 -20.66125 5.14875 -22 5 C-22 4.67 -22 4.34 -22 4 C-21.31035156 3.96261719 -20.62070313 3.92523438 -19.91015625 3.88671875 C-14.17008709 3.48515013 -9.16632513 2.65779738 -3.77734375 0.62109375 C-2 0 -2 0 0 0 Z " fill="#339B3E" transform="translate(136,71)"/>
<path d="M0 0 C0.66 1.32 1.32 2.64 2 4 C1.34644531 3.84660156 0.69289062 3.69320312 0.01953125 3.53515625 C-3.75492159 2.86620406 -7.48905996 2.64592703 -11.3125 2.4375 C-12.05306641 2.39431641 -12.79363281 2.35113281 -13.55664062 2.30664062 C-15.37091464 2.20129568 -17.1854355 2.10021684 -19 2 C-19 1.67 -19 1.34 -19 1 C-16.95857606 0.83038614 -14.91684689 0.66444404 -12.875 0.5 C-11.16957031 0.36078125 -11.16957031 0.36078125 -9.4296875 0.21875 C-6.27402851 0.0174779 -3.16078835 -0.03842904 0 0 Z " fill="#319F3A" transform="translate(163,75)"/>
<path d="M0 0 C0.33 0 0.66 0 1 0 C1.23828125 2.2890625 1.23828125 2.2890625 1 5 C-0.64453125 6.8359375 -0.64453125 6.8359375 -2.8125 8.375 C-3.87404297 9.16003906 -3.87404297 9.16003906 -4.95703125 9.9609375 C-5.63121094 10.30382812 -6.30539063 10.64671875 -7 11 C-7.99 10.67 -8.98 10.34 -10 10 C-9.34 9.67 -8.68 9.34 -8 9 C-7.67 8.01 -7.34 7.02 -7 6 C-5.68 6 -4.36 6 -3 6 C-3 5.34 -3 4.68 -3 4 C-2.34 4 -1.68 4 -1 4 C-0.67 2.68 -0.34 1.36 0 0 Z " fill="#D39D11" transform="translate(135,176)"/>
<path d="M0 0 C0 0.66 0 1.32 0 2 C0.66 2 1.32 2 2 2 C2 2.66 2 3.32 2 4 C1.34 4 0.68 4 0 4 C0 4.66 0 5.32 0 6 C-1.32 6 -2.64 6 -4 6 C-4.33 6.66 -4.66 7.32 -5 8 C-5.36625971 3.48279689 -5.36625971 3.48279689 -3.625 1.1875 C-2 0 -2 0 0 0 Z " fill="#246811" transform="translate(85,97)"/>
<path d="M0 0 C0.66 0.33 1.32 0.66 2 1 C1.525625 1.9075 1.05125 2.815 0.5625 3.75 C-1.69953238 8.92493256 -1.73466539 14.42797318 -2 20 C-2.33 20 -2.66 20 -3 20 C-3.08139142 17.60347472 -3.14067009 15.20974564 -3.1875 12.8125 C-3.22520508 11.80219727 -3.22520508 11.80219727 -3.26367188 10.77148438 C-3.32923478 6.29135252 -2.66743649 3.60559001 0 0 Z " fill="#46B452" transform="translate(87,24)"/>
<path d="M0 0 C0.33 0 0.66 0 1 0 C1.48837209 5.37209302 1.48837209 5.37209302 -0.75 8.25 C-2.8430437 9.87792288 -4.49533295 11.1390207 -7 12 C-9.25 11.625 -9.25 11.625 -11 11 C-8.44027274 9.46416364 -5.92172403 7.96086201 -3.25 6.625 C-0.75451585 5.16880821 -0.75451585 5.16880821 -0.1875 2.3125 C-0.125625 1.549375 -0.06375 0.78625 0 0 Z " fill="#92A522" transform="translate(136,176)"/>
<path d="M0 0 C3.63 0.33 7.26 0.66 11 1 C10.67 1.99 10.34 2.98 10 4 C6.6875 4.25 6.6875 4.25 3 4 C2.01 2.68 1.02 1.36 0 0 Z " fill="#A46800" transform="translate(64,132)"/>
<path d="M0 0 C0.66 0 1.32 0 2 0 C1.01 3.3 0.02 6.6 -1 10 C-1.66 10 -2.32 10 -3 10 C-2.25 3.375 -2.25 3.375 0 0 Z " fill="#3EAF4C" transform="translate(103,80)"/>
<path d="M0 0 C-0.66 1.32 -1.32 2.64 -2 4 C-2.66 4 -3.32 4 -4 4 C-4.33 4.99 -4.66 5.98 -5 7 C-7.5625 8.6875 -7.5625 8.6875 -10 10 C-8.06029999 5.63567499 -5.33343768 0 0 0 Z " fill="#14680E" transform="translate(130,40)"/>
<path d="M0 0 C0.33 0 0.66 0 1 0 C1.05422947 1.4370809 1.09289723 2.87475462 1.125 4.3125 C1.14820313 5.11300781 1.17140625 5.91351563 1.1953125 6.73828125 C1 9 1 9 -1 12 C-3.625 12.6875 -3.625 12.6875 -6 13 C-4.71937515 11.2925002 -3.38232443 9.62626404 -2 8 C-1.34 8 -0.68 8 0 8 C0 5.36 0 2.72 0 0 Z " fill="#63A72A" transform="translate(148,144)"/>
<path d="M0 0 C1.48199902 0.44909061 2.96055236 0.90956564 4.4375 1.375 C5.26121094 1.63023437 6.08492188 1.88546875 6.93359375 2.1484375 C9 3 9 3 10 5 C3.51707705 5.3669579 3.51707705 5.3669579 1.0625 3.625 C0 2 0 2 0 0 Z " fill="#579832" transform="translate(70,185)"/>
<path d="M0 0 C2.475 0.495 2.475 0.495 5 1 C5 1.66 5 2.32 5 3 C5.99 3 6.98 3 8 3 C8 3.66 8 4.32 8 5 C8.66 5 9.32 5 10 5 C10 5.66 10 6.32 10 7 C5.04303419 5.76075855 2.88341534 4.21422242 0 0 Z " fill="#034901" transform="translate(52,63)"/>
<path d="M0 0 C-0.165 0.598125 -0.33 1.19625 -0.5 1.8125 C-1.1114124 4.11344336 -1.1114124 4.11344336 -1 7 C-2.70884005 5.37660195 -4.37446717 3.70680947 -6 2 C-6 1.34 -6 0.68 -6 0 C-3 -1 -3 -1 0 0 Z " fill="#054D02" transform="translate(48,50)"/>
<path d="M0 0 C0.99 0.33 1.98 0.66 3 1 C2.01 1.33 1.02 1.66 0 2 C-0.4640625 2.928125 -0.4640625 2.928125 -0.9375 3.875 C-2.20298687 6.40597375 -3.67272837 7.44848558 -6 9 C-5.52797514 4.75177626 -3.03344482 2.80010291 0 0 Z " fill="#40AC48" transform="translate(126,39)"/>
<path d="M0 0 C0 0.99 0 1.98 0 3 C-2.59688473 5.59688473 -4.10659265 6.92058601 -7.8125 7.25 C-8.534375 7.1675 -9.25625 7.085 -10 7 C-6.80331012 4.3513141 -3.60513403 2.06007659 0 0 Z " fill="#46AB30" transform="translate(135,183)"/>
<path d="M0 0 C0 1.32 0 2.64 0 4 C-2.64 4 -5.28 4 -8 4 C-7.67 3.01 -7.34 2.02 -7 1 C-2.25 0 -2.25 0 0 0 Z " fill="#371909" transform="translate(80,126)"/>
<path d="M0 0 C1.2065625 0.0309375 1.2065625 0.0309375 2.4375 0.0625 C2.4375 0.7225 2.4375 1.3825 2.4375 2.0625 C3.0975 2.3925 3.7575 2.7225 4.4375 3.0625 C2.1275 3.3925 -0.1825 3.7225 -2.5625 4.0625 C-2.8925 3.0725 -3.2225 2.0825 -3.5625 1.0625 C-2.5625 0.0625 -2.5625 0.0625 0 0 Z " fill="#30A741" transform="translate(107.5625,98.9375)"/>
<path d="M0 0 C0.33 1.98 0.66 3.96 1 6 C-1.475 5.01 -1.475 5.01 -4 4 C-4 3.34 -4 2.68 -4 2 C-4.66 1.67 -5.32 1.34 -6 1 C-3.92446352 0.4465236 -2.15634036 0 0 0 Z " fill="#7A5403" transform="translate(64,151)"/>
<path d="M0 0 C0.33 1.32 0.66 2.64 1 4 C1.66 4 2.32 4 3 4 C3.33 2.68 3.66 1.36 4 0 C4 2.31 4 4.62 4 7 C2.68 7 1.36 7 0 7 C0 4.69 0 2.38 0 0 Z " fill="#055300" transform="translate(98,109)"/>
<path d="M0 0 C0.66 0.33 1.32 0.66 2 1 C2 1.66 2 2.32 2 3 C1.01 3 0.02 3 -1 3 C-1.33 3.99 -1.66 4.98 -2 6 C-2.99 6.66 -3.98 7.32 -5 8 C-4.67 6.35 -4.34 4.7 -4 3 C-3.34 3 -2.68 3 -2 3 C-2 2.34 -2 1.68 -2 1 C-1.34 0.67 -0.68 0.34 0 0 Z " fill="#35A542" transform="translate(113,76)"/>
<path d="M0 0 C0.66 0 1.32 0 2 0 C2.33 1.65 2.66 3.3 3 5 C3.66 5 4.32 5 5 5 C4.34 6.32 3.68 7.64 3 9 C2.34 9 1.68 9 1 9 C-0.06546953 5.8035914 -0.07427838 3.34252724 0 0 Z " fill="#1A6F14" transform="translate(88,61)"/>
<path d="M0 0 C1.32 0 2.64 0 4 0 C4 1.32 4 2.64 4 4 C2.35 4 0.7 4 -1 4 C-0.67 2.68 -0.34 1.36 0 0 Z " fill="#E39804" transform="translate(56,124)"/>
<path d="M0 0 C0.66 0 1.32 0 2 0 C1.75 1.875 1.75 1.875 1 4 C-1.0625 5.25 -1.0625 5.25 -3 6 C-3.66 5.34 -4.32 4.68 -5 4 C-3.35 3.34 -1.7 2.68 0 2 C0 1.34 0 0.68 0 0 Z " fill="#32A33C" transform="translate(152,101)"/>
<path d="M0 0 C0.66 0 1.32 0 2 0 C2 0.66 2 1.32 2 2 C4.475 2.99 4.475 2.99 7 4 C6.67 4.99 6.34 5.98 6 7 C5.01 6.34 4.02 5.68 3 5 C3 4.34 3 3.68 3 3 C1.68 2.34 0.36 1.68 -1 1 C-0.67 0.67 -0.34 0.34 0 0 Z " fill="#37A33E" transform="translate(77,86)"/>
<path d="M0 0 C7.50769231 -0.36923077 7.50769231 -0.36923077 10 1.5 C10.495 2.2425 10.495 2.2425 11 3 C9.02 3.33 7.04 3.66 5 4 C5 3.01 5 2.02 5 1 C3.35 1 1.7 1 0 1 C0 0.67 0 0.34 0 0 Z " fill="#3AB54E" transform="translate(114,76)"/>
<path d="M0 0 C0.33 0 0.66 0 1 0 C1.33 2.64 1.66 5.28 2 8 C1.67 7.34 1.34 6.68 1 6 C-1.01669827 4.86649466 -1.01669827 4.86649466 -3 4 C-2.67 3.01 -2.34 2.02 -2 1 C-1.34 1.33 -0.68 1.66 0 2 C0 1.34 0 0.68 0 0 Z " fill="#37A743" transform="translate(104,70)"/>
<path d="M0 0 C0.66 0.33 1.32 0.66 2 1 C1.67 2.32 1.34 3.64 1 5 C0.01 5 -0.98 5 -2 5 C-2.33 5.99 -2.66 6.98 -3 8 C-3.66 7.67 -4.32 7.34 -5 7 C-4.34 5.68 -3.68 4.36 -3 3 C-2.34 3 -1.68 3 -1 3 C-0.67 2.01 -0.34 1.02 0 0 Z " fill="#116310" transform="translate(92,21)"/>
<path d="M0 0 C0.7425 0.45375 1.485 0.9075 2.25 1.375 C4.46930578 2.68640796 6.67967822 3.88280803 9 5 C6.1875 5.625 6.1875 5.625 3 6 C2.01 5.34 1.02 4.68 0 4 C0 2.68 0 1.36 0 0 Z " fill="#C28514" transform="translate(61,125)"/>
<path d="M0 0 C-1.32 0.33 -2.64 0.66 -4 1 C-4 1.66 -4 2.32 -4 3 C-4.66 3 -5.32 3 -6 3 C-6 2.34 -6 1.68 -6 1 C-7.32 0.67 -8.64 0.34 -10 0 C-6.42355152 -1.2380014 -3.66305234 -0.74926071 0 0 Z " fill="#20620E" transform="translate(78,106)"/>
<path d="M0 0 C2.31 0.66 4.62 1.32 7 2 C7.33 3.32 7.66 4.64 8 6 C6.66402348 5.19185349 5.331275 4.37836819 4 3.5625 C3.2575 3.11003906 2.515 2.65757813 1.75 2.19140625 C1.1725 1.79824219 0.595 1.40507813 0 1 C0 0.67 0 0.34 0 0 Z " fill="#3DAB4E" transform="translate(41,105)"/>
<path d="M0 0 C0.625 1.8125 0.625 1.8125 1 4 C0.01 5.485 0.01 5.485 -1 7 C-2.32 6.67 -3.64 6.34 -5 6 C-4.34 6 -3.68 6 -3 6 C-3 5.34 -3 4.68 -3 4 C-2.34 4 -1.68 4 -1 4 C-0.67 2.68 -0.34 1.36 0 0 Z " fill="#10590D" transform="translate(113,98)"/>
<path d="M0 0 C0.66 0.33 1.32 0.66 2 1 C0.68 2.65 -0.64 4.3 -2 6 C-3.32 5.67 -4.64 5.34 -6 5 C-4.02 3.35 -2.04 1.7 0 0 Z " fill="#389F39" transform="translate(168,88)"/>
<path d="M0 0 C0 0.66 0 1.32 0 2 C-3.3 2 -6.6 2 -10 2 C-6.64608848 -1.35391152 -4.35183427 -1.05855428 0 0 Z " fill="#0F600B" transform="translate(104,19)"/>
</svg>
